<mxfile host="app.diagrams.net" agent="Mozilla/5.0 (Macintosh; Intel Mac OS X 10_15_7) AppleWebKit/537.36 (KHTML, like Gecko) Chrome/128.0.0.0 Safari/537.36" version="24.8.4">
  <diagram name="第 1 页" id="r-QYy4yTDAXlUnZA-kqE">
    <mxGraphModel dx="1259" dy="729" grid="1" gridSize="10" guides="1" tooltips="1" connect="1" arrows="1" fold="1" page="1" pageScale="1" pageWidth="827" pageHeight="1169" math="0" shadow="0">
      <root>
        <mxCell id="0" />
        <mxCell id="1" parent="0" />
        <mxCell id="HL1eQFWd3Z9WtekmYT1a-1" value="" style="rounded=1;whiteSpace=wrap;html=1;strokeWidth=2;strokeColor=#808080;fillColor=#E6E6E6;perimeterSpacing=0;glass=0;imageWidth=24;arcSize=4;absoluteArcSize=0;" vertex="1" parent="1">
          <mxGeometry x="89.75" y="1278" width="310" height="410" as="geometry" />
        </mxCell>
        <mxCell id="HL1eQFWd3Z9WtekmYT1a-2" value="&lt;font style=&quot;font-size: 16px;&quot;&gt;b.cc&lt;/font&gt;" style="shape=document;whiteSpace=wrap;html=1;boundedLbl=1;size=0.25;direction=east;fillColor=#FFE6CC;strokeWidth=2;strokeColor=#4D4D4D;portConstraintRotation=0;autosize=0;fixedWidth=0;noLabel=0;portConstraint=none;" vertex="1" parent="1">
          <mxGeometry x="251.5" y="1131" width="130" height="40" as="geometry" />
        </mxCell>
        <mxCell id="HL1eQFWd3Z9WtekmYT1a-3" value="&lt;font style=&quot;font-size: 16px;&quot;&gt;frontend&lt;/font&gt;" style="rounded=0;whiteSpace=wrap;html=1;fillColor=#A5EB5E;strokeWidth=2;strokeColor=#4D4D4D;" vertex="1" parent="1">
          <mxGeometry x="251.5" y="1185" width="130" height="30" as="geometry" />
        </mxCell>
        <mxCell id="HL1eQFWd3Z9WtekmYT1a-4" value="&lt;font style=&quot;font-size: 16px;&quot;&gt;a.bc&lt;/font&gt;" style="shape=document;whiteSpace=wrap;html=1;boundedLbl=1;size=0.25;direction=east;fillColor=#FFE6CC;strokeWidth=2;strokeColor=#4D4D4D;" vertex="1" parent="1">
          <mxGeometry x="103.25" y="1234" width="130" height="40" as="geometry" />
        </mxCell>
        <mxCell id="HL1eQFWd3Z9WtekmYT1a-5" value="&lt;font style=&quot;font-size: 16px;&quot;&gt;b.bc&lt;/font&gt;" style="shape=document;whiteSpace=wrap;html=1;boundedLbl=1;size=0.25;direction=east;fillColor=#FFE6CC;strokeWidth=2;strokeColor=#4D4D4D;" vertex="1" parent="1">
          <mxGeometry x="251.5" y="1234" width="130" height="40" as="geometry" />
        </mxCell>
        <mxCell id="HL1eQFWd3Z9WtekmYT1a-6" value="&lt;font style=&quot;font-size: 16px;&quot;&gt;Combined summary&lt;/font&gt;" style="shape=note;whiteSpace=wrap;html=1;backgroundOutline=1;darkOpacity=0.05;direction=east;flipV=1;size=20;textDirection=vertical-lr;fillColor=#66B2FF;strokeWidth=2;strokeColor=#4D4D4D;" vertex="1" parent="1">
          <mxGeometry x="347.75" y="1353" width="40" height="315" as="geometry" />
        </mxCell>
        <mxCell id="HL1eQFWd3Z9WtekmYT1a-7" value="&lt;font style=&quot;font-size: 15px;&quot;&gt;combine summary and split vtables&lt;/font&gt;" style="rounded=0;whiteSpace=wrap;html=1;strokeWidth=2;fillColor=#A5EB5E;strokeColor=#4D4D4D;" vertex="1" parent="1">
          <mxGeometry x="104.75" y="1298" width="280" height="30" as="geometry" />
        </mxCell>
        <mxCell id="HL1eQFWd3Z9WtekmYT1a-8" value="&lt;font style=&quot;font-size: 16px;&quot;&gt;a.bc&lt;/font&gt;" style="shape=document;whiteSpace=wrap;html=1;boundedLbl=1;size=0.25;direction=east;strokeWidth=2;strokeColor=#4D4D4D;fillColor=#FFE6CC;" vertex="1" parent="1">
          <mxGeometry x="99.75" y="1353" width="70" height="45" as="geometry" />
        </mxCell>
        <mxCell id="HL1eQFWd3Z9WtekmYT1a-9" value="&lt;font style=&quot;font-size: 16px;&quot;&gt;vtable.bc&lt;/font&gt;" style="shape=document;whiteSpace=wrap;html=1;boundedLbl=1;size=0.25;direction=east;strokeWidth=2;strokeColor=#4D4D4D;fillColor=#FFE6CC;" vertex="1" parent="1">
          <mxGeometry x="184.5" y="1353" width="68" height="45" as="geometry" />
        </mxCell>
        <mxCell id="HL1eQFWd3Z9WtekmYT1a-10" value="&lt;font style=&quot;font-size: 16px;&quot;&gt;b.bc&lt;/font&gt;" style="shape=document;whiteSpace=wrap;html=1;boundedLbl=1;size=0.25;direction=east;strokeWidth=2;strokeColor=#4D4D4D;fillColor=#FFE6CC;" vertex="1" parent="1">
          <mxGeometry x="265.75" y="1353" width="71" height="45" as="geometry" />
        </mxCell>
        <mxCell id="HL1eQFWd3Z9WtekmYT1a-11" value="&lt;font style=&quot;font-size: 16px;&quot;&gt;a.cc&lt;/font&gt;" style="shape=document;whiteSpace=wrap;html=1;boundedLbl=1;size=0.25;direction=east;fillColor=#FFE6CC;strokeWidth=2;strokeColor=#4D4D4D;" vertex="1" parent="1">
          <mxGeometry x="103.25" y="1130" width="131.5" height="40" as="geometry" />
        </mxCell>
        <mxCell id="HL1eQFWd3Z9WtekmYT1a-12" value="&lt;font style=&quot;font-size: 16px;&quot;&gt;frontend&lt;/font&gt;" style="rounded=0;whiteSpace=wrap;html=1;fillColor=#A5EB5E;strokeWidth=2;strokeColor=#4D4D4D;" vertex="1" parent="1">
          <mxGeometry x="103.25" y="1185" width="130" height="30" as="geometry" />
        </mxCell>
        <mxCell id="HL1eQFWd3Z9WtekmYT1a-13" value="&lt;font style=&quot;font-size: 16px;&quot;&gt;vtable.bc&lt;/font&gt;" style="shape=document;whiteSpace=wrap;html=1;boundedLbl=1;size=0.25;direction=east;strokeWidth=2;fillColor=#FFE6CC;strokeColor=#4D4D4D;" vertex="1" parent="1">
          <mxGeometry x="181.5" y="1548" width="70" height="45" as="geometry" />
        </mxCell>
        <mxCell id="HL1eQFWd3Z9WtekmYT1a-14" value="BE" style="rounded=0;whiteSpace=wrap;html=1;strokeWidth=2;fillColor=#A5EB5E;strokeColor=#4D4D4D;" vertex="1" parent="1">
          <mxGeometry x="103.25" y="1628" width="66.5" height="40" as="geometry" />
        </mxCell>
        <mxCell id="HL1eQFWd3Z9WtekmYT1a-15" value="BE" style="rounded=0;whiteSpace=wrap;html=1;strokeWidth=2;fillColor=#A5EB5E;strokeColor=#4D4D4D;" vertex="1" parent="1">
          <mxGeometry x="185.5" y="1628" width="64.25" height="40" as="geometry" />
        </mxCell>
        <mxCell id="HL1eQFWd3Z9WtekmYT1a-16" value="BE" style="rounded=0;whiteSpace=wrap;html=1;strokeWidth=2;fillColor=#A5EB5E;strokeColor=#4D4D4D;" vertex="1" parent="1">
          <mxGeometry x="265.75" y="1628" width="64" height="40" as="geometry" />
        </mxCell>
        <mxCell id="HL1eQFWd3Z9WtekmYT1a-17" value="" style="curved=1;endArrow=none;html=1;rounded=0;strokeWidth=3;endFill=0;startArrow=blockThin;startFill=1;exitX=0.5;exitY=0;exitDx=0;exitDy=0;strokeColor=#4D4D4D;" edge="1" parent="1" source="HL1eQFWd3Z9WtekmYT1a-8">
          <mxGeometry width="50" height="50" relative="1" as="geometry">
            <mxPoint x="160.5" y="1358" as="sourcePoint" />
            <mxPoint x="240.5" y="1328" as="targetPoint" />
            <Array as="points">
              <mxPoint x="190.5" y="1328" />
            </Array>
          </mxGeometry>
        </mxCell>
        <mxCell id="HL1eQFWd3Z9WtekmYT1a-18" value="" style="curved=1;endArrow=none;html=1;rounded=0;strokeWidth=3;endFill=0;startArrow=blockThin;startFill=1;strokeColor=#4D4D4D;" edge="1" parent="1">
          <mxGeometry width="50" height="50" relative="1" as="geometry">
            <mxPoint x="206.75" y="1352" as="sourcePoint" />
            <mxPoint x="250.75" y="1328" as="targetPoint" />
            <Array as="points">
              <mxPoint x="206.75" y="1328" />
            </Array>
          </mxGeometry>
        </mxCell>
        <mxCell id="HL1eQFWd3Z9WtekmYT1a-19" value="" style="curved=1;endArrow=none;html=1;rounded=0;strokeWidth=3;endFill=0;startArrow=blockThin;startFill=1;exitX=0.5;exitY=0;exitDx=0;exitDy=0;strokeColor=#4D4D4D;" edge="1" parent="1">
          <mxGeometry width="50" height="50" relative="1" as="geometry">
            <mxPoint x="291.75" y="1352" as="sourcePoint" />
            <mxPoint x="250.75" y="1328" as="targetPoint" />
            <Array as="points">
              <mxPoint x="291.75" y="1328" />
            </Array>
          </mxGeometry>
        </mxCell>
        <mxCell id="HL1eQFWd3Z9WtekmYT1a-20" value="" style="curved=1;endArrow=none;html=1;rounded=0;strokeWidth=3;endFill=0;startArrow=blockThin;startFill=1;exitX=0.5;exitY=0;exitDx=0;exitDy=0;strokeColor=#4D4D4D;" edge="1" parent="1">
          <mxGeometry width="50" height="50" relative="1" as="geometry">
            <mxPoint x="372.5" y="1353" as="sourcePoint" />
            <mxPoint x="256.75" y="1328" as="targetPoint" />
            <Array as="points">
              <mxPoint x="306.75" y="1328" />
            </Array>
          </mxGeometry>
        </mxCell>
        <mxCell id="HL1eQFWd3Z9WtekmYT1a-21" value="" style="endArrow=none;html=1;rounded=0;endFill=0;startArrow=blockThin;startFill=1;strokeWidth=3;strokeColor=#4D4D4D;" edge="1" parent="1">
          <mxGeometry width="50" height="50" relative="1" as="geometry">
            <mxPoint x="137.25" y="1627" as="sourcePoint" />
            <mxPoint x="137.25" y="1390" as="targetPoint" />
          </mxGeometry>
        </mxCell>
        <mxCell id="HL1eQFWd3Z9WtekmYT1a-22" value="" style="endArrow=none;html=1;rounded=0;endFill=0;startArrow=blockThin;startFill=1;strokeWidth=3;strokeColor=#4D4D4D;" edge="1" parent="1">
          <mxGeometry width="50" height="50" relative="1" as="geometry">
            <mxPoint x="299.75" y="1627" as="sourcePoint" />
            <mxPoint x="299.75" y="1393" as="targetPoint" />
          </mxGeometry>
        </mxCell>
        <mxCell id="HL1eQFWd3Z9WtekmYT1a-23" value="" style="endArrow=none;html=1;rounded=0;endFill=0;startArrow=blockThin;startFill=1;strokeWidth=3;strokeColor=#4D4D4D;" edge="1" parent="1">
          <mxGeometry width="50" height="50" relative="1" as="geometry">
            <mxPoint x="216.75" y="1628" as="sourcePoint" />
            <mxPoint x="216.75" y="1587" as="targetPoint" />
          </mxGeometry>
        </mxCell>
        <mxCell id="HL1eQFWd3Z9WtekmYT1a-24" value="" style="curved=1;endArrow=blockThin;html=1;rounded=0;strokeWidth=3;strokeColor=#4D4D4D;endFill=1;" edge="1" parent="1">
          <mxGeometry width="50" height="50" relative="1" as="geometry">
            <mxPoint x="344.75" y="1578" as="sourcePoint" />
            <mxPoint x="297.75" y="1628" as="targetPoint" />
            <Array as="points">
              <mxPoint x="304.76" y="1578" />
            </Array>
          </mxGeometry>
        </mxCell>
        <mxCell id="HL1eQFWd3Z9WtekmYT1a-25" value="" style="curved=1;endArrow=blockThin;html=1;rounded=0;strokeWidth=3;strokeColor=#4D4D4D;endFill=1;" edge="1" parent="1">
          <mxGeometry width="50" height="50" relative="1" as="geometry">
            <mxPoint x="342.26" y="1578" as="sourcePoint" />
            <mxPoint x="213.75" y="1628" as="targetPoint" />
            <Array as="points">
              <mxPoint x="292.26" y="1578" />
            </Array>
          </mxGeometry>
        </mxCell>
        <mxCell id="HL1eQFWd3Z9WtekmYT1a-26" value="" style="curved=1;endArrow=blockThin;html=1;rounded=0;strokeWidth=3;entryX=0.5;entryY=0;entryDx=0;entryDy=0;strokeColor=#4D4D4D;endFill=1;" edge="1" parent="1" target="HL1eQFWd3Z9WtekmYT1a-14">
          <mxGeometry width="50" height="50" relative="1" as="geometry">
            <mxPoint x="349.75" y="1578" as="sourcePoint" />
            <mxPoint x="219.75" y="1638" as="targetPoint" />
            <Array as="points">
              <mxPoint x="289.75" y="1578" />
            </Array>
          </mxGeometry>
        </mxCell>
        <mxCell id="HL1eQFWd3Z9WtekmYT1a-27" value="" style="curved=1;endArrow=blockThin;html=1;rounded=0;strokeWidth=3;entryX=1;entryY=0.5;entryDx=0;entryDy=0;exitX=-0.05;exitY=0.623;exitDx=0;exitDy=0;exitPerimeter=0;startArrow=blockThin;startFill=1;endFill=1;strokeColor=#4D4D4D;" edge="1" parent="1" source="HL1eQFWd3Z9WtekmYT1a-6">
          <mxGeometry width="50" height="50" relative="1" as="geometry">
            <mxPoint x="359.75" y="1588" as="sourcePoint" />
            <mxPoint x="273.75" y="1468" as="targetPoint" />
            <Array as="points">
              <mxPoint x="319.75" y="1448" />
            </Array>
          </mxGeometry>
        </mxCell>
        <mxCell id="HL1eQFWd3Z9WtekmYT1a-28" value="" style="endArrow=blockThin;html=1;rounded=0;strokeWidth=3;endFill=1;strokeColor=#4D4D4D;startSize=5;endSize=3;" edge="1" parent="1">
          <mxGeometry width="50" height="50" relative="1" as="geometry">
            <mxPoint x="218.75" y="1391" as="sourcePoint" />
            <mxPoint x="218.75" y="1416" as="targetPoint" />
          </mxGeometry>
        </mxCell>
        <mxCell id="HL1eQFWd3Z9WtekmYT1a-29" value="" style="endArrow=blockThin;html=1;rounded=0;strokeWidth=3;endFill=1;strokeColor=#4D4D4D;endSize=3;" edge="1" parent="1">
          <mxGeometry width="50" height="50" relative="1" as="geometry">
            <mxPoint x="216.75" y="1525" as="sourcePoint" />
            <mxPoint x="216.75" y="1548" as="targetPoint" />
          </mxGeometry>
        </mxCell>
        <mxCell id="HL1eQFWd3Z9WtekmYT1a-30" value="&lt;font style=&quot;font-size: 15px;&quot;&gt;layout vtables&lt;/font&gt;" style="rounded=0;whiteSpace=wrap;html=1;strokeWidth=2;fillColor=#FF9933;strokeColor=#4D4D4D;" vertex="1" parent="1">
          <mxGeometry x="155.75" y="1417" width="120" height="36" as="geometry" />
        </mxCell>
        <mxCell id="HL1eQFWd3Z9WtekmYT1a-31" value="&lt;font style=&quot;font-size: 15px;&quot;&gt;remove vtable slots&lt;/font&gt;" style="rounded=0;whiteSpace=wrap;html=1;strokeWidth=2;strokeColor=#4D4D4D;fillColor=#FF9933;" vertex="1" parent="1">
          <mxGeometry x="155.75" y="1453" width="120" height="36" as="geometry" />
        </mxCell>
        <mxCell id="HL1eQFWd3Z9WtekmYT1a-32" value="&lt;span style=&quot;font-size: 15px;&quot;&gt;unused RTTI data&lt;/span&gt;" style="rounded=0;whiteSpace=wrap;html=1;strokeWidth=2;strokeColor=#4D4D4D;fillColor=#FF9933;" vertex="1" parent="1">
          <mxGeometry x="155.5" y="1489" width="120" height="36" as="geometry" />
        </mxCell>
        <mxCell id="HL1eQFWd3Z9WtekmYT1a-33" value="" style="endArrow=blockThin;html=1;rounded=0;strokeWidth=3;endFill=1;exitX=0.473;exitY=1;exitDx=0;exitDy=0;exitPerimeter=0;strokeColor=#4D4D4D;" edge="1" parent="1">
          <mxGeometry width="50" height="50" relative="1" as="geometry">
            <mxPoint x="325.75" y="1267" as="sourcePoint" />
            <mxPoint x="285.75" y="1297" as="targetPoint" />
          </mxGeometry>
        </mxCell>
        <mxCell id="HL1eQFWd3Z9WtekmYT1a-34" value="" style="endArrow=blockThin;html=1;rounded=0;strokeWidth=3;endFill=1;strokeColor=#4D4D4D;endSize=3;" edge="1" parent="1">
          <mxGeometry width="50" height="50" relative="1" as="geometry">
            <mxPoint x="320.75" y="1214" as="sourcePoint" />
            <mxPoint x="320.75" y="1233" as="targetPoint" />
          </mxGeometry>
        </mxCell>
        <mxCell id="HL1eQFWd3Z9WtekmYT1a-35" value="" style="endArrow=blockThin;html=1;rounded=0;strokeWidth=3;endFill=1;strokeColor=#4D4D4D;endSize=3;" edge="1" parent="1">
          <mxGeometry width="50" height="50" relative="1" as="geometry">
            <mxPoint x="167.75" y="1214" as="sourcePoint" />
            <mxPoint x="167.75" y="1233" as="targetPoint" />
          </mxGeometry>
        </mxCell>
        <mxCell id="HL1eQFWd3Z9WtekmYT1a-36" value="" style="endArrow=blockThin;html=1;rounded=0;strokeWidth=3;endFill=1;strokeColor=#4D4D4D;endSize=3;" edge="1" parent="1">
          <mxGeometry width="50" height="50" relative="1" as="geometry">
            <mxPoint x="320.75" y="1165" as="sourcePoint" />
            <mxPoint x="320.75" y="1183" as="targetPoint" />
          </mxGeometry>
        </mxCell>
        <mxCell id="HL1eQFWd3Z9WtekmYT1a-37" value="" style="endArrow=blockThin;html=1;rounded=0;strokeWidth=3;endFill=1;strokeColor=#4D4D4D;endSize=3;" edge="1" parent="1">
          <mxGeometry width="50" height="50" relative="1" as="geometry">
            <mxPoint x="167.75" y="1164" as="sourcePoint" />
            <mxPoint x="167.75" y="1183" as="targetPoint" />
          </mxGeometry>
        </mxCell>
        <mxCell id="HL1eQFWd3Z9WtekmYT1a-38" value="&lt;font style=&quot;font-size: 16px;&quot;&gt;a.o&lt;/font&gt;" style="shape=document;whiteSpace=wrap;html=1;boundedLbl=1;size=0.25;direction=east;strokeWidth=2;strokeColor=#4D4D4D;fillColor=#FFE6CC;" vertex="1" parent="1">
          <mxGeometry x="97.75" y="1698" width="69" height="45" as="geometry" />
        </mxCell>
        <mxCell id="HL1eQFWd3Z9WtekmYT1a-39" value="&lt;span style=&quot;font-size: 16px;&quot;&gt;vtable.o&lt;/span&gt;" style="shape=document;whiteSpace=wrap;html=1;boundedLbl=1;size=0.25;direction=east;strokeWidth=2;strokeColor=#4D4D4D;fillColor=#FFE6CC;" vertex="1" parent="1">
          <mxGeometry x="184.5" y="1698" width="65.25" height="45" as="geometry" />
        </mxCell>
        <mxCell id="HL1eQFWd3Z9WtekmYT1a-40" value="&lt;font style=&quot;font-size: 16px;&quot;&gt;b.o&lt;/font&gt;" style="shape=document;whiteSpace=wrap;html=1;boundedLbl=1;size=0.25;direction=east;strokeWidth=2;strokeColor=#4D4D4D;fillColor=#FFE6CC;" vertex="1" parent="1">
          <mxGeometry x="268.75" y="1698" width="71" height="45" as="geometry" />
        </mxCell>
        <mxCell id="HL1eQFWd3Z9WtekmYT1a-41" value="" style="endArrow=none;html=1;rounded=0;endFill=0;startArrow=blockThin;startFill=1;strokeWidth=3;strokeColor=#4D4D4D;" edge="1" parent="1">
          <mxGeometry width="50" height="50" relative="1" as="geometry">
            <mxPoint x="215.75" y="1697" as="sourcePoint" />
            <mxPoint x="215.75" y="1669" as="targetPoint" />
          </mxGeometry>
        </mxCell>
        <mxCell id="HL1eQFWd3Z9WtekmYT1a-42" value="" style="endArrow=none;html=1;rounded=0;endFill=0;startArrow=blockThin;startFill=1;strokeWidth=3;strokeColor=#4D4D4D;" edge="1" parent="1">
          <mxGeometry width="50" height="50" relative="1" as="geometry">
            <mxPoint x="133.75" y="1697" as="sourcePoint" />
            <mxPoint x="133.75" y="1668" as="targetPoint" />
          </mxGeometry>
        </mxCell>
        <mxCell id="HL1eQFWd3Z9WtekmYT1a-43" value="" style="endArrow=none;html=1;rounded=0;endFill=0;startArrow=blockThin;startFill=1;strokeWidth=3;strokeColor=#4D4D4D;" edge="1" parent="1">
          <mxGeometry width="50" height="50" relative="1" as="geometry">
            <mxPoint x="297.75" y="1696" as="sourcePoint" />
            <mxPoint x="297.75" y="1668" as="targetPoint" />
          </mxGeometry>
        </mxCell>
        <mxCell id="HL1eQFWd3Z9WtekmYT1a-44" value="" style="endArrow=blockThin;html=1;rounded=0;strokeWidth=3;endFill=1;exitX=0.473;exitY=1;exitDx=0;exitDy=0;exitPerimeter=0;strokeColor=#4D4D4D;" edge="1" parent="1">
          <mxGeometry width="50" height="50" relative="1" as="geometry">
            <mxPoint x="176.75" y="1267" as="sourcePoint" />
            <mxPoint x="216.75" y="1297" as="targetPoint" />
          </mxGeometry>
        </mxCell>
        <mxCell id="HL1eQFWd3Z9WtekmYT1a-45" value="&lt;font style=&quot;font-size: 20px;&quot;&gt;LTO&lt;/font&gt;" style="rounded=0;whiteSpace=wrap;html=1;fillColor=#E6E6E6;strokeColor=none;textDirection=rtl;flipH=1;flipV=1;direction=south;" vertex="1" parent="1">
          <mxGeometry x="94.75" y="1453" width="30" height="50" as="geometry" />
        </mxCell>
      </root>
    </mxGraphModel>
  </diagram>
</mxfile>
